<svg width="26" height="20" viewBox="0 0 26 20" fill="none" xmlns="http://www.w3.org/2000/svg">
<path d="M21.4127 0.988243L19.8127 2.27991L13.0002 7.51116L6.18768 2.22824L4.58768 0.936577C4.21075 0.614364 3.75062 0.413504 3.26429 0.358879C2.77797 0.304255 2.28682 0.398267 1.85169 0.629269C1.41657 0.86027 1.05659 1.21811 0.816359 1.65846C0.576126 2.0988 0.466194 2.6023 0.500184 3.10658V18.077C0.500184 18.5429 0.67929 18.9897 0.998102 19.3191C1.31691 19.6486 1.74932 19.8337 2.20018 19.8337H6.18768V9.86199L13.0002 15.1449L19.8127 9.86199V19.8337H23.8002C24.2511 19.8337 24.6835 19.6486 25.0023 19.3191C25.3211 18.9897 25.5002 18.5429 25.5002 18.077V3.10658C25.5237 2.60665 25.4061 2.11045 25.1617 1.67828C24.9174 1.24611 24.5569 0.896595 24.1239 0.672212C23.6909 0.447829 23.2042 0.358245 22.7229 0.41435C22.2416 0.470454 21.7864 0.66983 21.4127 0.988243Z" fill="white"/>
</svg>
