<svg width="26" height="30" viewBox="0 0 26 30" fill="none" xmlns="http://www.w3.org/2000/svg">
<path d="M22.1508 6.9525C21.9609 6.85431 21.7761 6.74667 21.597 6.63C21.0766 6.2859 20.5994 5.8805 20.1758 5.4225C19.1145 4.20875 18.7183 2.9775 18.5733 2.11625H18.5783C18.457 1.4 18.507 0.9375 18.5158 0.9375H13.6845V19.6162C13.6845 19.8662 13.6845 20.115 13.6745 20.36C13.6745 20.39 13.6708 20.4175 13.6695 20.4513C13.6695 20.4638 13.6695 20.4787 13.6658 20.4925V20.5037C13.6151 21.1738 13.4004 21.8211 13.0408 22.3887C12.6811 22.9562 12.1875 23.4267 11.6033 23.7588C10.9938 24.1055 10.3045 24.2873 9.60329 24.2863C7.35329 24.2863 5.52829 22.4513 5.52829 20.185C5.52829 17.9175 7.35329 16.0825 9.60329 16.0825C10.0295 16.0825 10.4533 16.15 10.8583 16.2825L10.8645 11.3625C9.63456 11.2038 8.38504 11.3018 7.19484 11.6504C6.00465 11.9989 4.89963 12.5904 3.94954 13.3875C3.11686 14.1107 2.41678 14.9736 1.88079 15.9375C1.67704 16.2887 0.907043 17.7025 0.814543 19.995C0.755793 21.295 1.14704 22.645 1.33329 23.2013V23.2137C1.44954 23.5412 1.90454 24.6612 2.64454 25.605C3.24129 26.3625 3.94635 27.028 4.73704 27.58V27.5675L4.74829 27.58C7.08579 29.1675 9.67954 29.0637 9.67954 29.0637C10.1283 29.045 11.632 29.0637 13.3395 28.255C15.2333 27.3575 16.3108 26.0212 16.3108 26.0212C16.9997 25.2227 17.5475 24.3126 17.9308 23.33C18.3683 22.18 18.5133 20.8025 18.5133 20.2525V10.3412C18.572 10.3762 19.3533 10.8925 19.3533 10.8925C19.3533 10.8925 20.4783 11.6138 22.232 12.0825C23.4895 12.4163 25.1858 12.4875 25.1858 12.4875V7.69125C24.592 7.75625 23.3858 7.56875 22.1495 6.95375L22.1508 6.9525Z" fill="white"/>
</svg>
